# xmcd
#
# Track frame offsets:
#	150
#	25860
#	50092
#	74022
#	98014
#	122838
#	144334
#	162157
#	177764
#	213199
#	233789
#
# Disc length: 3451 seconds
#
# Revision: 0
# Processed by: cddbd v1.5.1PL0 Copyright (c) Steve Scherf et al.
# Submitted via: audiograbber 1.83.01
#
DISCID=950d790b
DTITLE=Buddy Guy - Heavy Love
DYEAR=1998
DGENRE=Blues
TTITLE0=Heavy Love
TTITLE1=Midnight Train ( feat Johny Lang )
TTITLE2=I Got A Problem
TTITLE3=I Need Your Tonight
TTITLE4=Saturday Night Fish Fry
TTITLE5=Had A Bad Night
TTITLE6=Are You Lonely For Me Baby
TTITLE7=I Just Want To Make Love To You
TTITLE8=Did Somebody Make A Fool Out Of You
TTITLE9=When The Time Is Right
TTITLE10=Let Me Show You
EXTD=1998 Silvertone Records Ltd.\nSong #2 features Johny Lang
EXTT0=
EXTT1=
EXTT2=
EXTT3=
EXTT4=
EXTT5=
EXTT6=
EXTT7=
EXTT8=
EXTT9=
EXTT10=
PLAYORDER=
